# xmcd CD database file
#
# Track frame offsets:
#	183
#	13070
#	25825
#	37218
#	49063
#	63225
#	76860
#	89373
#	101960
#	114953
#	126708
#	137705
#	150383
#	161100
#	172760
#	184633
#	196703
#	209058
#	222205
#	235625
#	247598
#	259653
#	271753
#	284065
#	297215
#
# Disc length: 4128 seconds
#
# Revision: 0
# Processed by: cddbd v1.5.2PL0 Copyright (c) Steve Scherf et al.
# Submitted via: CDex 1.51
#
DISCID=61101e19
DTITLE=Bix Beiderbecke - The Complete New Orleans Rythm Kings 1923 and  Bix' Wolverines 1924
DYEAR=1900
DGENRE=Jazz
TTITLE0=01 Angry (NORK)
TTITLE1=02 Angry (NORK)
TTITLE2=03 Clarinet Marmelade (NORK)
TTITLE3=04 Clarinet Marmelade (NORK)
TTITLE4=05 Mr Jelly Lord (NORK)
TTITLE5=06 Mr Jelly Lord (NORK)
TTITLE6=07 London Blues (NORK)
TTITLE7=08 Milenberg Joys (NORK)
TTITLE8=09 Milenberg Joys (NORK)
TTITLE9=10 Mad (NORK)
TTITLE10=11 Fidgety Feet (The Wolverines)
TTITLE11=12 Jazz Me Blues (The Wolverines)
TTITLE12=13 Oh Baby (The Wolverines)
TTITLE13=14 Copenhagen (The Wolverines)
TTITLE14=15 Riverboat Shuffle (The Wolverines)
TTITLE15=16 Susie (The Wolverines)
TTITLE16=17 Susie (The Wolverines)
TTITLE17=18 I Need Some Pettin' (The Wolverines)
TTITLE18=19 Royal Garden Blues (The Wolverines)
TTITLE19=20 Tiger Rag (The Wolverines)
TTITLE20=21 Sensation (The Wolverines)
TTITLE21=22 Lazy Daddy (The Wolverines)
TTITLE22=23 Lazy Daddy (The Wolverines)
TTITLE23=24 Tia Juana (The Wolverines)
TTITLE24=25 Big Boy (The Wolverines)
EXTD=
EXTT0=
EXTT1=
EXTT2=
EXTT3=
EXTT4=
EXTT5=
EXTT6=
EXTT7=
EXTT8=
EXTT9=
EXTT10=
EXTT11=
EXTT12=
EXTT13=
EXTT14=
EXTT15=
EXTT16=
EXTT17=
EXTT18=
EXTT19=
EXTT20=
EXTT21=
EXTT22=
EXTT23=
EXTT24=
PLAYORDER=
